<?xml version="1.0" encoding="UTF-8" standalone="no"?>
<svg
   width="50"
   height="50"
   viewBox="0 0 49.999999 50"
   version="1.1"
   id="svg3"
   sodipodi:docname="Icon awesome-instagram.svg"
   inkscape:version="1.1 (c68e22c387, 2021-05-23)"
   xmlns:inkscape="http://www.inkscape.org/namespaces/inkscape"
   xmlns:sodipodi="http://sodipodi.sourceforge.net/DTD/sodipodi-0.dtd"
   xmlns="http://www.w3.org/2000/svg"
   xmlns:svg="http://www.w3.org/2000/svg">
  <defs
     id="defs7" />
  <sodipodi:namedview
     id="namedview5"
     pagecolor="#ffffff"
     bordercolor="#999999"
     borderopacity="1"
     inkscape:pageshadow="0"
     inkscape:pageopacity="0"
     inkscape:pagecheckerboard="0"
     showgrid="false"
     inkscape:zoom="5.7844482"
     inkscape:cx="17.633488"
     inkscape:cy="29.994218"
     inkscape:window-width="1366"
     inkscape:window-height="705"
     inkscape:window-x="-8"
     inkscape:window-y="-8"
     inkscape:window-maximized="1"
     inkscape:current-layer="svg3" />
  <path
     id="Icon_awesome-instagram"
     data-name="Icon awesome-instagram"
     d="M 25.004635,12.502449 A 12.409128,12.497551 0 1 0 37.413764,25 12.389659,12.477942 0 0 0 25.004635,12.502449 Z m 0,20.622266 a 8.0663046,8.1237809 0 1 1 8.066305,-8.123782 8.0820663,8.1396549 0 0 1 -8.066305,8.123782 z M 40.81552,11.990746 A 2.894598,2.9152235 0 1 1 37.920922,9.0755214 2.8871808,2.9077533 0 0 1 40.81552,11.990746 Z m 8.218359,2.958177 C 48.848448,11.043904 47.964861,7.5852285 45.12404,4.7353685 42.283216,1.8855088 38.861064,0.99469411 34.983675,0.79860301 c -3.996067,-0.22877324 -15.973138,-0.22877324 -19.969203,0 C 11.148208,0.98535651 7.7140017,1.8752374 4.8731795,4.7250971 2.0323569,7.5749571 1.1589708,11.033633 0.96426672,14.938652 c -0.22715438,4.024538 -0.22715438,16.086952 0,20.111493 0.18543248,3.905016 1.06901728,7.363692 3.90983998,10.213553 2.8408222,2.849859 6.2639023,3.741608 10.1412913,3.937698 3.996067,0.228774 15.973137,0.228774 19.969204,0 3.877388,-0.186752 7.311594,-1.076634 10.141291,-3.937698 2.829697,-2.861066 3.715137,-6.308537 3.909841,-10.213553 0.227154,-4.024541 0.227154,-16.075749 0,-20.10029 z m -5.162434,24.418031 a 8.1673652,8.2255616 0 0 1 -4.600576,4.633356 c -3.185727,1.272726 -10.745802,0.978587 -14.266234,0.978587 -3.520432,0 -11.091632,0.280132 -14.266232,-0.978587 A 8.1673652,8.2255616 0 0 1 6.1378277,39.366954 C 4.8741067,36.159459 5.1652354,28.545516 5.1652354,25 c 0,-3.545516 -0.2781484,-11.170666 0.9716651,-14.367887 A 8.1673652,8.2255616 0 0 1 10.738403,5.9978228 c 3.185726,-1.2727257 10.7458,-0.9785889 14.266232,-0.9785889 3.520432,0 11.091634,-0.2801305 14.266234,0.9785889 a 8.1673652,8.2255616 0 0 1 4.600576,4.6333552 c 1.26372,3.208427 0.971664,10.822371 0.971664,14.367889 0,3.545517 0.292056,11.169731 -0.970737,14.368819 z"
     fill="#53f2c7"
     style="stroke-width:0.930459" />
</svg>
